<svg width="69" height="32" viewBox="0 0 69 32" fill="none" xmlns="http://www.w3.org/2000/svg">
<g clip-path="url(#clip0_12_161)">
<path d="M9.94277 25.5396V30.4883L5.9639 26.2131V30.3296H5.66211V25.4759L9.64155 29.7196V25.5396H9.94334H9.94277ZM13.4565 28.8873H10.9355V28.9383C10.9355 29.2983 11.0467 29.5872 11.2685 29.8056C11.4909 30.024 11.7671 30.1329 12.0984 30.1329C12.3248 30.1329 12.5256 30.0704 12.702 29.9455C12.8779 29.8205 13.0185 29.6606 13.1229 29.4663L13.3617 29.5998C13.2318 29.8583 13.0537 30.055 12.8274 30.1908C12.601 30.3261 12.3452 30.3943 12.0604 30.3943C11.6287 30.3943 11.2861 30.243 11.0325 29.9403C10.7789 29.6377 10.6519 29.2788 10.6519 28.8638C10.6519 28.4488 10.7806 28.0962 11.0382 27.7935C11.2957 27.4909 11.6367 27.3395 12.0598 27.3395C12.483 27.3395 12.8433 27.492 13.0906 27.7981C13.3379 28.1042 13.4593 28.4682 13.4553 28.8896M10.9355 28.6207H13.1734C13.1399 28.3536 13.0214 28.1174 12.8183 27.9122C12.6152 27.707 12.3645 27.6038 12.0672 27.6038C11.77 27.6038 11.5181 27.7047 11.3003 27.9065C11.0824 28.1088 10.9605 28.3467 10.9355 28.6201M16.7382 27.3946V30.1897C16.7382 30.4144 16.7246 30.6294 16.6973 30.8346C16.6701 31.0398 16.5873 31.2404 16.4489 31.4348C16.3144 31.6211 16.1459 31.7621 15.9428 31.8572C15.7398 31.9524 15.5225 32 15.2922 32C14.911 32 14.582 31.8911 14.3051 31.6727C14.0283 31.4543 13.8797 31.1441 13.8587 30.7417H14.1417C14.1588 31.0467 14.2768 31.288 14.4969 31.4663C14.717 31.644 14.9734 31.7328 15.2672 31.7328C15.4516 31.7328 15.6263 31.699 15.792 31.6314C15.9576 31.5637 16.0926 31.4514 16.1976 31.2949C16.311 31.1258 16.3819 30.9475 16.4114 30.7612C16.4409 30.5749 16.4557 30.384 16.4557 30.1897V29.8211H16.4432C16.3133 29.9988 16.1476 30.1387 15.9468 30.2407C15.7454 30.3422 15.5338 30.3932 15.312 30.3932C14.8928 30.3932 14.5536 30.2407 14.2938 29.9357C14.034 29.6308 13.9041 29.2731 13.9041 28.8621C13.9041 28.451 14.0391 28.0784 14.3097 27.7821C14.5802 27.4857 14.9269 27.3372 15.35 27.3372C15.5849 27.3372 15.7925 27.386 15.9723 27.4834C16.1527 27.5809 16.3099 27.7225 16.4437 27.9088L16.4562 27.9025V27.394H16.7393L16.7382 27.3946ZM15.3115 27.5975C14.9802 27.6021 14.7102 27.7322 14.5008 27.9884C14.2909 28.2447 14.1866 28.5319 14.1866 28.8489C14.1866 29.1836 14.2892 29.4812 14.4946 29.7414C14.6999 30.0017 14.9785 30.1318 15.3308 30.1318C15.7035 30.1318 15.9877 30.0005 16.1822 29.738C16.3774 29.4754 16.4744 29.1682 16.4744 28.8168C16.4744 28.4654 16.3689 28.1914 16.1567 27.9563C15.9451 27.7213 15.6632 27.6038 15.3115 27.6038V27.5975ZM18.9324 27.3309C19.3595 27.3349 19.7215 27.4834 20.017 27.7752C20.3126 28.0675 20.4601 28.4316 20.4601 28.8678C20.4601 29.304 20.312 29.6669 20.017 29.9575C19.7215 30.2476 19.3601 30.3926 18.9324 30.3926C18.5047 30.3926 18.1569 30.2436 17.8636 29.9449C17.5704 29.6463 17.4234 29.2897 17.4234 28.8747C17.4234 28.4596 17.5698 28.0893 17.8636 27.7884C18.1569 27.4874 18.5132 27.3372 18.9324 27.3372V27.3309ZM18.9131 27.5975C18.5693 27.6021 18.2823 27.7311 18.052 27.985C17.8217 28.2389 17.7059 28.5353 17.7059 28.8741C17.7059 29.2129 17.8211 29.5018 18.052 29.754C18.2823 30.0062 18.5693 30.1318 18.9131 30.1318C19.2569 30.1318 19.5689 30.0114 19.8122 29.7695C20.055 29.5282 20.177 29.2295 20.177 28.8741C20.177 28.5187 20.0567 28.2068 19.8156 27.9655C19.5745 27.7242 19.2739 27.6032 18.9137 27.6032V27.5969L18.9131 27.5975ZM19.064 25.7935L19.4475 25.9145L18.668 26.8357L18.4292 26.7279L19.064 25.7941V25.7935ZM23.3702 27.6932V28.0744C23.2318 27.926 23.0792 27.8107 22.9113 27.7282C22.7433 27.6456 22.555 27.6044 22.3457 27.6044C22.0019 27.6044 21.716 27.7305 21.4874 27.9827C21.2588 28.2349 21.1448 28.5279 21.1448 28.8626C21.1448 29.1974 21.2582 29.4926 21.4846 29.7489C21.7109 30.0051 21.9957 30.1329 22.3394 30.1329C22.5488 30.1329 22.7467 30.0854 22.9334 29.9902C23.12 29.895 23.2783 29.7666 23.4082 29.6061V29.9873C23.2613 30.1226 23.0979 30.2246 22.9181 30.2923C22.7377 30.3599 22.5493 30.3938 22.3525 30.3938C21.9208 30.3938 21.5645 30.2453 21.2837 29.9489C21.0029 29.6526 20.8628 29.2903 20.8628 28.8626C20.8628 28.435 21.0052 28.0739 21.2906 27.7798C21.5753 27.4851 21.9316 27.3384 22.3593 27.3384C22.5476 27.3384 22.728 27.3682 22.8999 27.4272C23.0718 27.4863 23.2289 27.5774 23.3713 27.7007V27.6944L23.3702 27.6932ZM24.5337 30.3296H24.2506V27.3946H24.5337V30.3296ZM24.3953 26.1558C24.4662 26.1598 24.5274 26.1873 24.5773 26.2383C24.6278 26.2894 24.6528 26.3507 24.6528 26.4223C24.6528 26.494 24.6278 26.5559 24.5773 26.6064C24.5269 26.6574 24.4662 26.6826 24.3953 26.6826C24.3243 26.6826 24.2631 26.6574 24.2126 26.6052C24.1627 26.5542 24.1371 26.4917 24.1371 26.4189C24.1371 26.3461 24.1621 26.2836 24.2126 26.2326C24.2631 26.1804 24.3238 26.1552 24.3953 26.1552M26.8408 27.3309C27.2679 27.3349 27.6299 27.4834 27.9254 27.7752C28.221 28.0675 28.3684 28.4316 28.3684 28.8678C28.3684 29.304 28.2204 29.6669 27.9254 29.9575C27.6299 30.2476 27.2685 30.3926 26.8408 30.3926C26.413 30.3926 26.0653 30.2436 25.772 29.9449C25.4787 29.6463 25.3318 29.2897 25.3318 28.8747C25.3318 28.4596 25.4787 28.0893 25.772 27.7884C26.0653 27.4874 26.4216 27.3372 26.8408 27.3372V27.3309ZM26.8215 27.5975C26.4777 27.6021 26.1907 27.7311 25.9604 27.985C25.7301 28.2389 25.6143 28.5353 25.6143 28.8741C25.6143 29.2129 25.7295 29.5018 25.9604 29.754C26.1907 30.0062 26.4777 30.1318 26.8215 30.1318C27.1653 30.1318 27.4773 30.0114 27.7206 29.7695C27.9634 29.5282 28.0854 29.2295 28.0854 28.8741C28.0854 28.5187 27.9651 28.2068 27.724 27.9655C27.4829 27.7242 27.1823 27.6032 26.8221 27.6032V27.5969L26.8215 27.5975ZM30.5179 27.801L30.2728 27.9282C30.2268 27.8308 30.1588 27.7528 30.0686 27.6932C29.9784 27.6342 29.8768 27.6044 29.7639 27.6044H29.7452C29.6278 27.6084 29.5189 27.6554 29.4185 27.7442C29.3181 27.8331 29.2676 27.9391 29.2676 28.0618C29.2676 28.2143 29.3232 28.3255 29.4344 28.3954C29.5455 28.4654 29.6743 28.5279 29.8212 28.5829C29.8462 28.5915 29.8712 28.6012 29.8967 28.6116C29.9217 28.6219 29.9489 28.6316 29.9784 28.6402C30.1542 28.7079 30.3159 28.799 30.4623 28.9131C30.6086 29.0277 30.6824 29.218 30.6824 29.4846C30.6824 29.7512 30.591 29.9747 30.4089 30.1421C30.2268 30.3095 30.0056 30.3932 29.7458 30.3932C29.503 30.3932 29.2903 30.3244 29.1076 30.1868C28.9255 30.0492 28.8047 29.8618 28.7463 29.6245L29.0231 29.5293C29.0775 29.707 29.1632 29.852 29.2806 29.9644C29.3981 30.0768 29.5529 30.1324 29.7458 30.1324C29.9387 30.1324 30.085 30.0676 30.211 29.9386C30.3369 29.8096 30.3993 29.6537 30.3993 29.4714C30.3993 29.2891 30.3414 29.1601 30.2263 29.0839C30.1111 29.0077 29.9801 28.944 29.8332 28.8936C29.8122 28.885 29.79 28.8764 29.7674 28.8684C29.7441 28.8598 29.722 28.8512 29.7015 28.8431C29.5212 28.7755 29.3566 28.6866 29.208 28.5766C29.0594 28.4665 28.9851 28.3014 28.9851 28.0813C28.9851 27.8612 29.0645 27.6766 29.2239 27.5413C29.3833 27.406 29.5677 27.3378 29.777 27.3378C29.794 27.3378 29.8105 27.339 29.8275 27.3412C29.8445 27.343 29.861 27.3447 29.878 27.3447C30.0118 27.3659 30.1389 27.4175 30.258 27.5C30.3777 27.5826 30.4645 27.6852 30.519 27.8079V27.8016L30.5179 27.801ZM33.6867 30.3296H33.3849V25.5396H33.6867V30.3296ZM34.9625 27.3946V27.7632H34.9749C35.0419 27.6319 35.1417 27.5281 35.2733 27.4519C35.4055 27.3756 35.549 27.3372 35.7039 27.3372C35.8883 27.3372 36.0516 27.3831 36.194 27.4737C36.3364 27.5648 36.4459 27.6972 36.5213 27.8709C36.6008 27.6972 36.7159 27.5648 36.8668 27.4737C37.0177 27.3825 37.185 27.3372 37.37 27.3372C37.7427 27.3372 37.986 27.4496 38.0989 27.6737C38.2118 27.8984 38.2685 28.1713 38.2685 28.4929V30.329H37.9855V28.4488C37.9855 28.2286 37.9509 28.0326 37.8817 27.8612C37.8125 27.6898 37.6394 27.6038 37.3632 27.6038C37.0869 27.6038 36.8793 27.7053 36.7783 27.9088C36.6779 28.1123 36.6234 28.3341 36.6149 28.576V30.329H36.3319V28.5055C36.3319 28.2814 36.2944 28.075 36.219 27.8864C36.1435 27.6978 35.9654 27.6038 35.6846 27.6038C35.4418 27.6038 35.2699 27.6886 35.169 27.8577C35.0685 28.0274 35.0056 28.2131 34.9806 28.4166C34.9721 28.4677 34.967 28.5181 34.9647 28.5691C34.9625 28.6201 34.9619 28.6706 34.9619 28.7216V30.329H34.6788V27.394H34.9619L34.9625 27.3946ZM40.4628 27.3309C40.8899 27.3349 41.2518 27.4834 41.5474 27.7752C41.8429 28.0675 41.9904 28.4316 41.9904 28.8678C41.9904 29.304 41.8424 29.6669 41.5474 29.9575C41.2518 30.2476 40.8905 30.3926 40.4628 30.3926C40.035 30.3926 39.6873 30.2436 39.394 29.9449C39.1007 29.6463 38.9538 29.2897 38.9538 28.8747C38.9538 28.4596 39.1007 28.0893 39.394 27.7884C39.6873 27.4874 40.0435 27.3372 40.4628 27.3372V27.3309ZM40.444 27.5975C40.1003 27.6021 39.8132 27.7311 39.5829 27.985C39.3526 28.2389 39.2369 28.5353 39.2369 28.8741C39.2369 29.2129 39.352 29.5018 39.5829 29.754C39.8132 30.0062 40.1003 30.1318 40.444 30.1318C40.7878 30.1318 41.0998 30.0114 41.3432 29.7695C41.586 29.5282 41.7079 29.2295 41.7079 28.8741C41.7079 28.5187 41.5877 28.2068 41.3466 27.9655C41.1055 27.7242 40.8048 27.6032 40.4446 27.6032V27.5969L40.444 27.5975ZM42.6757 30.3296V25.089H42.9588V27.903H42.9713C43.0927 27.7207 43.2543 27.5809 43.4557 27.484C43.6565 27.3865 43.8687 27.3378 44.0905 27.3378C44.5262 27.3378 44.8722 27.4828 45.1275 27.7729C45.3833 28.063 45.511 28.4218 45.511 28.8494C45.511 29.2771 45.3822 29.6417 45.1246 29.942C44.8671 30.243 44.5182 30.3932 44.078 30.3932C44.0485 30.3932 44.0201 30.392 43.9935 30.3897C43.9663 30.3875 43.9379 30.3846 43.9084 30.38C43.7201 30.3588 43.5397 30.2986 43.3678 30.1989C43.1959 30.0991 43.0643 29.969 42.9718 29.8079L42.9593 29.8016V30.329H42.6763L42.6757 30.3296ZM44.0843 30.1261C44.4405 30.1301 44.7202 30.0022 44.9233 29.7414C45.1263 29.4812 45.2284 29.1836 45.2284 28.8489C45.2284 28.5141 45.1235 28.2389 44.9142 27.985C44.7049 27.7311 44.4326 27.6038 44.0967 27.6038C43.728 27.6038 43.4432 27.7247 43.2418 27.9661C43.0405 28.2074 42.9401 28.5038 42.9401 28.8552C42.9401 29.2066 43.0416 29.4966 43.2453 29.7506C43.4483 30.0045 43.728 30.1318 44.0848 30.1318V30.1255L44.0843 30.1261ZM46.5859 30.3296H46.3029V27.3946H46.5859V30.3296ZM46.4475 26.1558C46.5184 26.1598 46.5797 26.1873 46.6296 26.2383C46.6801 26.2894 46.7051 26.3507 46.7051 26.4223C46.7051 26.494 46.6801 26.5559 46.6296 26.6064C46.5791 26.6574 46.5184 26.6826 46.4475 26.6826C46.3766 26.6826 46.3153 26.6574 46.2654 26.6052C46.2149 26.5542 46.19 26.4917 46.19 26.4189C46.19 26.3461 46.2149 26.2836 46.2654 26.2326C46.3159 26.1804 46.3766 26.1552 46.4475 26.1552M47.9502 30.3296H47.6672V25.089H47.9502V30.3296ZM49.3077 30.3296H49.0247V27.3946H49.3077V30.3296ZM49.1699 26.1558C49.2414 26.1598 49.3021 26.1873 49.352 26.2383C49.4025 26.2894 49.4274 26.3507 49.4274 26.4223C49.4274 26.494 49.4025 26.5559 49.352 26.6064C49.3015 26.6574 49.2408 26.6826 49.1699 26.6826C49.099 26.6826 49.0377 26.6574 48.9878 26.6052C48.9373 26.5542 48.9123 26.4917 48.9123 26.4189C48.9123 26.3461 48.9373 26.2836 48.9878 26.2326C49.0383 26.1804 49.099 26.1552 49.1699 26.1552M52.9417 27.3946V30.3296H52.6586V29.8022H52.6461C52.5542 29.9673 52.4221 30.0997 52.2502 30.1994C52.0783 30.2986 51.8979 30.3594 51.7096 30.3806C51.6801 30.3846 51.6517 30.388 51.6245 30.3903C51.5972 30.3926 51.5689 30.3938 51.54 30.3938C51.0997 30.3938 50.7509 30.2436 50.4933 29.9426C50.2358 29.6422 50.107 29.2777 50.107 28.85C50.107 28.4224 50.2347 28.0635 50.4905 27.7735C50.7463 27.4834 51.0918 27.3384 51.5275 27.3384C51.7493 27.3384 51.9614 27.3871 52.1623 27.4846C52.3636 27.582 52.5247 27.7236 52.6461 27.9099L52.6586 27.9036V27.3951H52.9417V27.3946ZM51.5144 27.5975C51.1831 27.6021 50.9131 27.7322 50.7038 27.9884C50.4939 28.2447 50.3895 28.5319 50.3895 28.8489C50.3895 29.1836 50.4922 29.4812 50.6976 29.7414C50.9029 30.0017 51.182 30.1318 51.5337 30.1318C51.9064 30.1318 52.1906 30.0005 52.3858 29.738C52.5803 29.4754 52.6779 29.1682 52.6779 28.8168C52.6779 28.4654 52.5724 28.1914 52.3608 27.9563C52.1492 27.7213 51.8673 27.6038 51.515 27.6038V27.5975H51.5144ZM51.7907 25.7935L52.1742 25.9145L51.3947 26.8357L51.1559 26.7279L51.7907 25.7941V25.7935ZM54.1925 27.3946V27.7758H54.205C54.264 27.6445 54.3446 27.539 54.4472 27.4582C54.5499 27.3779 54.6787 27.3372 54.8336 27.3372C54.8755 27.3372 54.9152 27.3407 54.9533 27.347C54.9913 27.3533 55.0287 27.363 55.0661 27.3756C55.0786 27.3797 55.0911 27.3848 55.1041 27.3917C55.1166 27.398 55.1291 27.4032 55.1416 27.4077L54.9907 27.6554C54.9782 27.6508 54.9657 27.6456 54.9527 27.6393C54.9402 27.633 54.9255 27.6273 54.9084 27.6233C54.892 27.6193 54.8727 27.6147 54.8517 27.6107C54.8307 27.6067 54.8097 27.6044 54.7887 27.6044C54.5709 27.6044 54.4229 27.6829 54.3457 27.8394C54.268 27.9959 54.2209 28.1679 54.2039 28.3542C54.1954 28.4264 54.1914 28.4969 54.1914 28.5668V30.3296H53.9083V27.3946H54.1914H54.1925ZM56.047 30.3296H55.7639V27.3946H56.047V30.3296ZM55.9085 26.1558C55.98 26.1598 56.0407 26.1873 56.0906 26.2383C56.1411 26.2894 56.1661 26.3507 56.1661 26.4223C56.1661 26.494 56.1411 26.5559 56.0906 26.6064C56.0402 26.6574 55.9795 26.6826 55.9085 26.6826C55.8376 26.6826 55.7764 26.6574 55.7264 26.6052C55.676 26.5542 55.651 26.4917 55.651 26.4189C55.651 26.3461 55.676 26.2836 55.7264 26.2326C55.7769 26.1804 55.8376 26.1552 55.9085 26.1552M58.3541 27.3309C58.7812 27.3349 59.1432 27.4834 59.4387 27.7752C59.7343 28.0675 59.8817 28.4316 59.8817 28.8678C59.8817 29.304 59.7337 29.6669 59.4387 29.9575C59.1432 30.2476 58.7818 30.3926 58.3541 30.3926C57.9263 30.3926 57.5786 30.2436 57.2853 29.9449C56.992 29.6463 56.8451 29.2897 56.8451 28.8747C56.8451 28.4596 56.992 28.0893 57.2853 27.7884C57.5786 27.4874 57.9349 27.3372 58.3541 27.3372V27.3309ZM58.3348 27.5975C57.991 27.6021 57.704 27.7311 57.4737 27.985C57.2428 28.2389 57.1276 28.5353 57.1276 28.8741C57.1276 29.2129 57.2428 29.5018 57.4737 29.754C57.704 30.0062 57.991 30.1318 58.3348 30.1318C58.6785 30.1318 58.9906 30.0114 59.2339 29.7695C59.4767 29.5282 59.5987 29.2295 59.5987 28.8741C59.5987 28.5187 59.4784 28.2068 59.2373 27.9655C58.9962 27.7242 58.6956 27.6032 58.3353 27.6032V27.5969L58.3348 27.5975ZM62.0317 27.801L61.7867 27.9282C61.7407 27.8308 61.6726 27.7528 61.5824 27.6932C61.4922 27.6342 61.3907 27.6044 61.2778 27.6044H61.2591C61.1417 27.6084 61.0327 27.6554 60.9323 27.7442C60.8319 27.8331 60.7814 27.9391 60.7814 28.0618C60.7814 28.2143 60.837 28.3255 60.9482 28.3954C61.0594 28.4654 61.1882 28.5279 61.3345 28.5829C61.3595 28.5915 61.385 28.6012 61.41 28.6116C61.4349 28.6219 61.4622 28.6316 61.4917 28.6402C61.6675 28.7079 61.8292 28.799 61.9761 28.9131C62.1231 29.0277 62.1962 29.218 62.1962 29.4846C62.1962 29.7512 62.1049 29.9747 61.9228 30.1421C61.7407 30.3095 61.5195 30.3932 61.2597 30.3932C61.0169 30.3932 60.8041 30.3244 60.6215 30.1868C60.4394 30.0492 60.3185 29.8618 60.2601 29.6245L60.5369 29.5293C60.5914 29.707 60.6776 29.852 60.7945 29.9644C60.9119 30.0768 61.0668 30.1324 61.2597 30.1324C61.4525 30.1324 61.5994 30.0676 61.7248 29.9386C61.8508 29.8096 61.9132 29.6537 61.9132 29.4714C61.9132 29.2891 61.8553 29.1601 61.7401 29.0839C61.625 29.0077 61.4939 28.944 61.3476 28.8936C61.3266 28.885 61.3045 28.8764 61.2818 28.8684C61.2585 28.8598 61.2364 28.8512 61.2154 28.8431C61.035 28.7755 60.8711 28.6866 60.7219 28.5766C60.5733 28.4665 60.4989 28.3014 60.4989 28.0813C60.4989 27.8612 60.5784 27.6766 60.7378 27.5413C60.8972 27.406 61.0815 27.3378 61.2909 27.3378C61.3079 27.3378 61.3243 27.339 61.3413 27.3412C61.3584 27.343 61.3748 27.3447 61.3918 27.3447C61.5257 27.3659 61.6528 27.4175 61.7719 27.5C61.8916 27.5826 61.9784 27.6852 62.0329 27.8079V27.8016L62.0317 27.801Z" fill="#003D6E"/>
<path d="M67.3002 0C67.5861 0 67.8646 0.073948 68.1369 0.222417C68.4087 0.370313 68.6214 0.582412 68.7729 0.858141C68.9243 1.13387 69.0009 1.42221 69.0009 1.72087C69.0009 2.01953 68.926 2.30271 68.7763 2.57557C68.6271 2.84958 68.4177 3.06168 68.1472 3.21244C67.8771 3.36435 67.5946 3.43944 67.3002 3.43944C67.0058 3.43944 66.7233 3.36435 66.4527 3.21244C66.1827 3.06168 65.9722 2.849 65.8225 2.57557C65.6721 2.30271 65.5967 2.01723 65.5967 1.72087C65.5967 1.4245 65.6727 1.13444 65.8253 0.858141C65.9785 0.582986 66.1912 0.370313 66.4629 0.222417C66.7352 0.073948 67.0143 0 67.3002 0ZM67.3002 0.2849C67.0608 0.2849 66.8277 0.34681 66.6013 0.47063C66.375 0.59445 66.198 0.771582 66.0704 1.00202C65.9427 1.23247 65.8786 1.47208 65.8786 1.72087C65.8786 1.96965 65.9416 2.20583 66.067 2.43341C66.1923 2.66098 66.3682 2.83811 66.5934 2.9648C66.8186 3.09149 67.0546 3.15569 67.2996 3.15569C67.5447 3.15569 67.7801 3.09206 68.0053 2.9648C68.2311 2.83811 68.4064 2.66098 68.5312 2.43341C68.656 2.2064 68.7184 1.96908 68.7184 1.72087C68.7184 1.47265 68.6543 1.23247 68.5272 1.00202C68.4002 0.772155 68.2232 0.59445 67.9963 0.47063C67.7693 0.34681 67.5368 0.2849 67.2996 0.2849M66.5525 2.66901V0.821454H67.1822C67.3972 0.821454 67.5532 0.838651 67.6491 0.873045C67.7461 0.90744 67.8221 0.966483 67.88 1.0519C67.9367 1.13674 67.9656 1.22673 67.9656 1.32247C67.9656 1.45718 67.918 1.57526 67.8215 1.67501C67.7262 1.77533 67.5992 1.83093 67.4403 1.84354C67.505 1.87106 67.5572 1.90316 67.5963 1.94157C67.6701 2.01379 67.7603 2.13589 67.8669 2.30787L68.0899 2.66958H67.7313L67.5685 2.37895C67.4403 2.14965 67.3371 2.00577 67.2582 1.94787C67.2043 1.90602 67.1261 1.88481 67.0217 1.88539H66.8481V2.66958H66.5525V2.66901ZM66.8487 1.62858H67.2072C67.3791 1.62858 67.4959 1.60278 67.5583 1.55176C67.6207 1.50017 67.6525 1.43195 67.6525 1.34826C67.6525 1.2938 67.6372 1.2445 67.6071 1.20209C67.577 1.15852 67.5356 1.12699 67.4823 1.10578C67.4284 1.08514 67.3297 1.07425 67.1856 1.07425H66.8492V1.62972L66.8487 1.62858Z" fill="#003D6E"/>
<path d="M23.8237 7.03313C24.7602 7.03313 25.5204 6.26499 25.5204 5.31857C25.5204 4.37215 24.7602 3.604 23.8237 3.604C22.8871 3.604 22.127 4.37215 22.127 5.31857C22.127 6.26499 22.8871 7.03313 23.8237 7.03313Z" fill="#003D6E"/>
<path d="M63.4831 12.879C62.1103 11.9275 60.3205 11.4517 58.1138 11.4517H46.9884C46.9884 9.19369 48.2807 8.08963 49.6064 7.55078C50.054 7.34957 50.543 7.20913 51.0728 7.13059C51.2016 7.11168 51.3689 7.09505 51.5743 7.08072C52.0905 7.02856 52.436 7.04289 52.436 7.04289C52.8716 7.03085 53.3912 7.02512 53.9948 7.02569L63.9551 7.03314L63.9579 3.62122H51.6004C47.9153 3.62122 45.0875 4.78203 43.1156 7.10422C41.4728 9.02458 40.6514 11.3645 40.6514 14.123C40.6514 17.0906 41.8721 19.2644 44.3126 20.6436C46.4484 21.848 49.582 22.4504 53.7123 22.4504C56.9753 22.4504 59.6035 22.0664 61.5986 21.2982C63.9692 20.3902 65.2717 18.9502 65.506 16.9771C65.5298 16.855 65.5412 16.6802 65.5412 16.4532C65.5412 15.0218 64.8547 13.8301 63.4819 12.8785L63.4831 12.879ZM56.9532 19.203H53.1252C46.4132 19.203 47.0094 14.6056 47.0094 14.6056H56.9526C58.2091 14.6056 59.2274 15.6346 59.2274 16.9043C59.2274 18.1741 58.2091 19.203 56.9526 19.203H56.9532Z" fill="#003D6E"/>
<path d="M22.8311 12.8875C21.4583 11.936 19.6686 11.4602 17.4619 11.4602H6.33647C6.33647 9.20218 7.62872 8.09812 8.95445 7.55927C9.40203 7.35806 9.89102 7.21762 10.4209 7.13909C10.5496 7.12017 10.717 7.10355 10.9223 7.08921C11.4385 7.03705 11.784 7.05138 11.784 7.05138C12.2197 7.03934 12.7393 7.03361 13.3429 7.03418L17.64 7.03705L22.1169 7.04622C21.6648 6.59737 21.3835 5.94331 21.3835 5.27949C21.3835 4.61568 21.6206 4.06365 22.0103 3.62512H17.64V3.62913H10.9484C7.2634 3.62913 4.43553 4.78995 2.46368 7.11214C0.821415 9.03307 0 11.373 0 14.1315C0 17.0991 1.22078 19.2729 3.6612 20.6521C5.79699 21.8565 8.93062 22.4589 13.061 22.4589C16.3239 22.4589 18.9521 22.0749 20.9472 21.3067C23.3179 20.3987 24.6203 18.9587 24.8546 16.9856C24.8784 16.8635 24.8898 16.6887 24.8898 16.4617C24.8898 15.0303 24.2034 13.8385 22.8306 12.887L22.8311 12.8875ZM16.3018 19.2115H12.4738C5.76182 19.2115 6.35803 14.6141 6.35803 14.6141H16.3012C17.5577 14.6141 18.576 15.6431 18.576 16.9128C18.576 18.1826 17.5577 19.2115 16.3012 19.2115H16.3018Z" fill="#003D6E"/>
<path d="M43.3831 5.97259C43.1516 5.68769 42.8765 5.41999 42.5594 5.16948C41.8441 4.60942 40.9756 4.20185 39.9539 3.94618C39.9488 3.94446 39.9437 3.94332 39.9386 3.94217C39.9102 3.93529 39.8813 3.92841 39.8524 3.92154C39.803 3.91007 39.7537 3.89861 39.7037 3.88714C39.6867 3.88313 39.6703 3.87969 39.6533 3.87568C39.6192 3.86822 39.5852 3.86134 39.5506 3.85447C39.5358 3.8516 39.5211 3.84816 39.5058 3.84529C39.4695 3.83784 39.4326 3.83096 39.3957 3.82408C39.3844 3.82179 39.373 3.82007 39.3617 3.81778C39.3208 3.81033 39.28 3.80287 39.2386 3.796C39.2352 3.796 39.2318 3.79485 39.2284 3.79428C38.5647 3.68135 37.8442 3.62402 37.0665 3.62402H25.6347C26.0245 4.06141 26.2621 4.6163 26.2621 5.27381C26.2621 5.93132 25.9882 6.57163 25.5462 7.01818H25.5423L27.0444 7.02391H35.9699C37.1612 7.03022 38.125 8.00759 38.125 9.21254C38.125 10.4175 37.1612 11.3954 35.9699 11.4012H27.037V12.7873H27.0444V12.797H27.037V14.1734H35.9699C37.1612 14.1797 38.125 15.157 38.125 16.362C38.125 17.5669 37.1612 18.5449 35.9699 18.5506H27.0444L25.1072 18.5661L25.1038 18.5741C24.5342 19.9665 23.3316 21.0293 21.4976 21.7631C21.3314 21.8301 21.1606 21.8938 20.9854 21.9551H26.5441V21.9597H37.067C37.6462 21.9597 38.1942 21.9282 38.7104 21.8651C39.3798 21.7837 40.0362 21.6175 40.6681 21.3796C41.0834 21.2236 41.5831 21.0247 41.89 20.8642C42.2497 20.6762 42.5725 20.4693 42.8578 20.244C41.0028 18.8103 40.0747 16.7644 40.0747 14.1057C40.0747 11.2355 40.9171 8.80096 42.602 6.80264C42.8493 6.50742 43.1097 6.22997 43.3831 5.97087V5.97259Z" fill="#003D6E"/>
</g>
<defs>
<clipPath id="clip0_12_161">
<rect width="69" height="32" fill="white"/>
</clipPath>
</defs>
</svg>
