<svg width="537" height="246" viewBox="0 0 537 246" fill="none" xmlns="http://www.w3.org/2000/svg">
<g clip-path="url(#clip0_2988_439)">
<path d="M77.3797 196.336V234.379L46.4137 201.514V233.159H44.0649V195.846L75.0354 228.47V196.336H77.3841H77.3797ZM104.725 222.071H85.1057V222.463C85.1057 225.231 85.971 227.452 87.6972 229.131C89.4279 230.81 91.5779 231.647 94.1562 231.647C95.9178 231.647 97.4806 231.167 98.8537 230.206C100.222 229.245 101.317 228.016 102.13 226.522L103.988 227.549C102.977 229.536 101.591 231.048 99.8293 232.092C98.0678 233.132 96.0767 233.657 93.8604 233.657C90.5007 233.657 87.8341 232.493 85.8606 230.166C83.8872 227.84 82.8983 225.081 82.8983 221.891C82.8983 218.7 83.9004 215.99 85.9048 213.663C87.9092 211.336 90.5625 210.173 93.856 210.173C97.1495 210.173 99.953 211.345 101.878 213.698C103.803 216.052 104.748 218.85 104.717 222.089M85.1057 220.022H102.522C102.262 217.968 101.339 216.153 99.7587 214.575C98.1782 212.998 96.2268 212.204 93.9134 212.204C91.6 212.204 89.6398 212.98 87.9445 214.531C86.2492 216.087 85.3 217.916 85.1057 220.018M130.266 210.596V232.083C130.266 233.811 130.16 235.463 129.948 237.041C129.736 238.619 129.091 240.161 128.014 241.655C126.968 243.087 125.656 244.171 124.076 244.903C122.495 245.634 120.804 246 119.012 246C116.045 246 113.485 245.163 111.33 243.484C109.176 241.805 108.019 239.421 107.856 236.327H110.059C110.191 238.672 111.109 240.527 112.822 241.897C114.535 243.263 116.531 243.946 118.818 243.946C120.253 243.946 121.612 243.686 122.902 243.166C124.191 242.646 125.241 241.783 126.058 240.58C126.941 239.28 127.493 237.909 127.723 236.477C127.952 235.045 128.067 233.577 128.067 232.083V229.25H127.97C126.959 230.616 125.67 231.691 124.107 232.476C122.54 233.256 120.893 233.648 119.167 233.648C115.904 233.648 113.264 232.476 111.242 230.131C109.22 227.787 108.209 225.037 108.209 221.877C108.209 218.718 109.26 215.853 111.365 213.575C113.471 211.297 116.169 210.155 119.462 210.155C121.29 210.155 122.906 210.53 124.305 211.279C125.709 212.028 126.932 213.117 127.974 214.549L128.071 214.5V210.592H130.274L130.266 210.596ZM119.162 212.156C116.584 212.191 114.482 213.192 112.853 215.161C111.22 217.131 110.407 219.339 110.407 221.776C110.407 224.349 111.206 226.637 112.805 228.637C114.403 230.638 116.571 231.638 119.312 231.638C122.213 231.638 124.425 230.629 125.939 228.611C127.458 226.593 128.213 224.231 128.213 221.529C128.213 218.828 127.391 216.721 125.74 214.915C124.094 213.108 121.899 212.204 119.162 212.204V212.156ZM147.342 210.107C150.667 210.138 153.483 211.279 155.784 213.522C158.084 215.769 159.232 218.568 159.232 221.921C159.232 225.275 158.079 228.064 155.784 230.299C153.483 232.528 150.671 233.643 147.342 233.643C144.014 233.643 141.307 232.498 139.025 230.202C136.742 227.906 135.599 225.165 135.599 221.974C135.599 218.784 136.738 215.937 139.025 213.623C141.307 211.31 144.08 210.155 147.342 210.155V210.107ZM147.192 212.156C144.517 212.191 142.283 213.183 140.49 215.135C138.698 217.087 137.797 219.365 137.797 221.97C137.797 224.574 138.694 226.795 140.49 228.734C142.283 230.673 144.517 231.638 147.192 231.638C149.868 231.638 152.296 230.713 154.19 228.853C156.079 226.998 157.029 224.702 157.029 221.97C157.029 219.238 156.093 216.84 154.216 214.985C152.34 213.13 150 212.2 147.197 212.2V212.152L147.192 212.156ZM148.367 198.288L151.351 199.218L145.285 206.299L143.426 205.471L148.367 198.292V198.288ZM181.88 212.892V215.822C180.803 214.681 179.615 213.795 178.308 213.161C177.002 212.526 175.536 212.209 173.907 212.209C171.231 212.209 169.006 213.178 167.227 215.117C165.448 217.056 164.56 219.308 164.56 221.882C164.56 224.455 165.443 226.725 167.205 228.695C168.966 230.664 171.183 231.647 173.858 231.647C175.487 231.647 177.028 231.281 178.48 230.55C179.933 229.818 181.165 228.831 182.176 227.597V230.528C181.032 231.568 179.761 232.352 178.361 232.872C176.957 233.392 175.492 233.652 173.96 233.652C170.6 233.652 167.827 232.511 165.642 230.233C163.457 227.954 162.366 225.169 162.366 221.882C162.366 218.594 163.474 215.818 165.695 213.557C167.911 211.292 170.684 210.164 174.013 210.164C175.478 210.164 176.882 210.393 178.22 210.847C179.558 211.301 180.781 212.002 181.889 212.949V212.901L181.88 212.892ZM190.935 233.159H188.732V210.596H190.935V233.159ZM189.858 201.073C190.41 201.104 190.886 201.315 191.275 201.707C191.668 202.1 191.862 202.571 191.862 203.122C191.862 203.673 191.668 204.149 191.275 204.537C190.882 204.929 190.41 205.123 189.858 205.123C189.306 205.123 188.829 204.929 188.436 204.528C188.048 204.136 187.849 203.655 187.849 203.096C187.849 202.536 188.043 202.056 188.436 201.663C188.829 201.262 189.301 201.068 189.858 201.068M208.89 210.107C212.215 210.138 215.031 211.279 217.331 213.522C219.632 215.769 220.78 218.568 220.78 221.921C220.78 225.275 219.627 228.064 217.331 230.299C215.031 232.528 212.219 233.643 208.89 233.643C205.561 233.643 202.855 232.498 200.573 230.202C198.29 227.906 197.147 225.165 197.147 221.974C197.147 218.784 198.29 215.937 200.573 213.623C202.855 211.31 205.628 210.155 208.89 210.155V210.107ZM208.74 212.156C206.065 212.191 203.831 213.183 202.038 215.135C200.246 217.087 199.345 219.365 199.345 221.97C199.345 224.574 200.241 226.795 202.038 228.734C203.831 230.673 206.065 231.638 208.74 231.638C211.416 231.638 213.844 230.713 215.738 228.853C217.627 226.998 218.576 224.702 218.576 221.97C218.576 219.238 217.641 216.84 215.764 214.985C213.888 213.13 211.548 212.2 208.745 212.2V212.152L208.74 212.156ZM237.507 213.72L235.6 214.699C235.243 213.949 234.713 213.35 234.011 212.892C233.309 212.438 232.519 212.209 231.64 212.209H231.494C230.581 212.24 229.733 212.601 228.951 213.284C228.17 213.967 227.777 214.782 227.777 215.725C227.777 216.898 228.21 217.753 229.075 218.29C229.94 218.828 230.943 219.308 232.086 219.731C232.28 219.797 232.475 219.872 232.673 219.952C232.867 220.031 233.079 220.106 233.309 220.172C234.678 220.692 235.936 221.393 237.075 222.269C238.214 223.151 238.788 224.614 238.788 226.663C238.788 228.712 238.077 230.431 236.66 231.718C235.243 233.004 233.521 233.648 231.499 233.648C229.609 233.648 227.954 233.119 226.532 232.061C225.115 231.004 224.175 229.563 223.72 227.738L225.874 227.007C226.298 228.373 226.965 229.488 227.879 230.352C228.793 231.215 229.998 231.643 231.499 231.643C233 231.643 234.139 231.145 235.119 230.153C236.099 229.162 236.585 227.963 236.585 226.562C236.585 225.16 236.134 224.169 235.238 223.583C234.342 222.997 233.322 222.507 232.179 222.12C232.015 222.054 231.843 221.987 231.667 221.926C231.486 221.86 231.313 221.794 231.154 221.732C229.751 221.212 228.47 220.529 227.314 219.683C226.157 218.837 225.578 217.567 225.578 215.875C225.578 214.183 226.197 212.764 227.437 211.724C228.678 210.684 230.113 210.16 231.742 210.16C231.874 210.16 232.002 210.168 232.135 210.186C232.267 210.199 232.395 210.213 232.528 210.213C233.569 210.376 234.558 210.772 235.485 211.407C236.417 212.041 237.092 212.83 237.516 213.773V213.725L237.507 213.72ZM262.169 233.159H259.82V196.336H262.169V233.159ZM272.098 210.596V213.429H272.195C272.716 212.42 273.493 211.623 274.517 211.037C275.546 210.45 276.663 210.155 277.868 210.155C279.303 210.155 280.575 210.508 281.683 211.204C282.791 211.905 283.643 212.923 284.23 214.258C284.848 212.923 285.745 211.905 286.919 211.204C288.093 210.503 289.396 210.155 290.835 210.155C293.735 210.155 295.629 211.019 296.508 212.742C297.387 214.469 297.828 216.567 297.828 219.039V233.154H295.625V218.7C295.625 217.008 295.356 215.501 294.817 214.183C294.279 212.865 292.932 212.204 290.782 212.204C288.632 212.204 287.016 212.984 286.23 214.549C285.449 216.113 285.025 217.819 284.959 219.678V233.154H282.756V219.136C282.756 217.413 282.464 215.827 281.877 214.377C281.29 212.927 279.904 212.204 277.718 212.204C275.829 212.204 274.491 212.857 273.705 214.157C272.924 215.461 272.434 216.889 272.239 218.453C272.173 218.845 272.133 219.233 272.116 219.625C272.098 220.018 272.094 220.405 272.094 220.798V233.154H269.891V210.592H272.094L272.098 210.596ZM314.905 210.107C318.229 210.138 321.046 211.279 323.346 213.522C325.646 215.769 326.794 218.568 326.794 221.921C326.794 225.275 325.642 228.064 323.346 230.299C321.046 232.528 318.234 233.643 314.905 233.643C311.576 233.643 308.87 232.498 306.587 230.202C304.305 227.906 303.161 225.165 303.161 221.974C303.161 218.784 304.305 215.937 306.587 213.623C308.87 211.31 311.642 210.155 314.905 210.155V210.107ZM314.759 212.156C312.084 212.191 309.85 213.183 308.057 215.135C306.265 217.087 305.364 219.365 305.364 221.97C305.364 224.574 306.26 226.795 308.057 228.734C309.85 230.673 312.084 231.638 314.759 231.638C317.435 231.638 319.863 230.713 321.757 228.853C323.646 226.998 324.595 224.702 324.595 221.97C324.595 219.238 323.66 216.84 321.783 214.985C319.907 213.13 317.567 212.2 314.764 212.2V212.152L314.759 212.156ZM332.127 233.159V192.872H334.33V214.505H334.427C335.372 213.103 336.63 212.028 338.198 211.283C339.761 210.534 341.412 210.16 343.138 210.16C346.529 210.16 349.222 211.275 351.208 213.504C353.2 215.734 354.193 218.493 354.193 221.78C354.193 225.068 353.191 227.871 351.186 230.18C349.182 232.493 346.467 233.648 343.041 233.648C342.811 233.648 342.591 233.639 342.383 233.621C342.171 233.604 341.95 233.582 341.721 233.546C340.255 233.383 338.851 232.921 337.513 232.154C336.176 231.387 335.151 230.387 334.432 229.148L334.335 229.1V233.154H332.132L332.127 233.159ZM343.089 231.594C345.862 231.625 348.039 230.642 349.619 228.637C351.2 226.637 351.994 224.349 351.994 221.776C351.994 219.202 351.178 217.087 349.548 215.135C347.919 213.183 345.8 212.204 343.187 212.204C340.317 212.204 338.101 213.134 336.533 214.989C334.966 216.845 334.185 219.123 334.185 221.824C334.185 224.526 334.975 226.756 336.56 228.708C338.14 230.66 340.317 231.638 343.094 231.638V231.59L343.089 231.594ZM362.559 233.159H360.356V210.596H362.559V233.159ZM361.482 201.073C362.034 201.104 362.511 201.315 362.899 201.707C363.292 202.1 363.486 202.571 363.486 203.122C363.486 203.673 363.292 204.149 362.899 204.537C362.506 204.929 362.034 205.123 361.482 205.123C360.93 205.123 360.453 204.929 360.065 204.528C359.672 204.136 359.478 203.655 359.478 203.096C359.478 202.536 359.672 202.056 360.065 201.663C360.458 201.262 360.93 201.068 361.482 201.068M373.177 233.159H370.974V192.872H373.177V233.159ZM383.742 233.159H381.539V210.596H383.742V233.159ZM382.669 201.073C383.225 201.104 383.698 201.315 384.086 201.707C384.479 202.1 384.673 202.571 384.673 203.122C384.673 203.673 384.479 204.149 384.086 204.537C383.693 204.929 383.221 205.123 382.669 205.123C382.117 205.123 381.64 204.929 381.252 204.528C380.859 204.136 380.665 203.655 380.665 203.096C380.665 202.536 380.859 202.056 381.252 201.663C381.645 201.262 382.117 201.068 382.669 201.068M412.023 210.596V233.159H409.82V229.104H409.723C409.008 230.374 407.979 231.392 406.642 232.158C405.304 232.921 403.9 233.388 402.434 233.551C402.205 233.582 401.984 233.608 401.772 233.626C401.56 233.643 401.339 233.652 401.114 233.652C397.688 233.652 394.973 232.498 392.969 230.184C390.964 227.875 389.962 225.072 389.962 221.785C389.962 218.497 390.956 215.739 392.947 213.509C394.938 211.279 397.627 210.164 401.017 210.164C402.743 210.164 404.395 210.539 405.957 211.288C407.525 212.037 408.779 213.125 409.723 214.558L409.82 214.509V210.6H412.023V210.596ZM400.916 212.156C398.337 212.191 396.236 213.192 394.607 215.161C392.973 217.131 392.161 219.339 392.161 221.776C392.161 224.349 392.96 226.637 394.558 228.637C396.156 230.638 398.328 231.638 401.066 231.638C403.966 231.638 406.178 230.629 407.697 228.611C409.211 226.593 409.971 224.231 409.971 221.529C409.971 218.828 409.149 216.721 407.503 214.915C405.856 213.108 403.662 212.204 400.92 212.204V212.156H400.916ZM403.066 198.288L406.05 199.218L399.984 206.299L398.125 205.471L403.066 198.292V198.288ZM421.758 210.596V213.526H421.855C422.315 212.517 422.941 211.706 423.741 211.085C424.54 210.468 425.542 210.155 426.747 210.155C427.074 210.155 427.383 210.182 427.679 210.23C427.974 210.279 428.266 210.354 428.557 210.45C428.654 210.481 428.751 210.521 428.853 210.574C428.95 210.622 429.047 210.662 429.144 210.697L427.97 212.601C427.873 212.566 427.776 212.526 427.674 212.478C427.577 212.429 427.462 212.385 427.33 212.354C427.202 212.323 427.052 212.288 426.888 212.257C426.725 212.226 426.562 212.209 426.398 212.209C424.703 212.209 423.551 212.813 422.95 214.016C422.345 215.219 421.979 216.541 421.847 217.973C421.78 218.528 421.749 219.07 421.749 219.608V233.159H419.546V210.596H421.749H421.758ZM436.191 233.159H433.988V210.596H436.191V233.159ZM435.113 201.073C435.67 201.104 436.142 201.315 436.53 201.707C436.923 202.1 437.118 202.571 437.118 203.122C437.118 203.673 436.923 204.149 436.53 204.537C436.138 204.929 435.665 205.123 435.113 205.123C434.561 205.123 434.085 204.929 433.696 204.528C433.303 204.136 433.109 203.655 433.109 203.096C433.109 202.536 433.303 202.056 433.696 201.663C434.089 201.262 434.561 201.068 435.113 201.068M454.146 210.107C457.47 210.138 460.287 211.279 462.587 213.522C464.887 215.769 466.035 218.568 466.035 221.921C466.035 225.275 464.883 228.064 462.587 230.299C460.287 232.528 457.475 233.643 454.146 233.643C450.817 233.643 448.111 232.498 445.828 230.202C443.546 227.906 442.402 225.165 442.402 221.974C442.402 218.784 443.546 215.937 445.828 213.623C448.111 211.31 450.883 210.155 454.146 210.155V210.107ZM453.996 212.156C451.32 212.191 449.086 213.183 447.294 215.135C445.497 217.087 444.601 219.365 444.601 221.97C444.601 224.574 445.497 226.795 447.294 228.734C449.086 230.673 451.32 231.638 453.996 231.638C456.671 231.638 459.099 230.713 460.993 228.853C462.883 226.998 463.832 224.702 463.832 221.97C463.832 219.238 462.896 216.84 461.02 214.985C459.144 213.13 456.804 212.2 454 212.2V212.152L453.996 212.156ZM482.768 213.72L480.86 214.699C480.503 213.949 479.973 213.35 479.271 212.892C478.569 212.438 477.779 212.209 476.9 212.209H476.754C475.841 212.24 474.993 212.601 474.212 213.284C473.43 213.967 473.037 214.782 473.037 215.725C473.037 216.898 473.47 217.753 474.335 218.29C475.2 218.828 476.203 219.308 477.342 219.731C477.536 219.797 477.735 219.872 477.929 219.952C478.123 220.031 478.335 220.106 478.565 220.172C479.933 220.692 481.191 221.393 482.335 222.269C483.478 223.151 484.048 224.614 484.048 226.663C484.048 228.712 483.337 230.431 481.92 231.718C480.503 233.004 478.781 233.648 476.759 233.648C474.869 233.648 473.214 233.119 471.792 232.061C470.375 231.004 469.435 229.563 468.98 227.738L471.134 227.007C471.558 228.373 472.229 229.488 473.139 230.352C474.053 231.215 475.258 231.643 476.759 231.643C478.26 231.643 479.403 231.145 480.379 230.153C481.359 229.162 481.845 227.963 481.845 226.562C481.845 225.16 481.395 224.169 480.498 223.583C479.602 222.997 478.582 222.507 477.443 222.12C477.28 222.054 477.108 221.987 476.931 221.926C476.75 221.86 476.578 221.794 476.415 221.732C475.011 221.212 473.735 220.529 472.574 219.683C471.417 218.837 470.839 217.567 470.839 215.875C470.839 214.183 471.457 212.764 472.697 211.724C473.938 210.684 475.373 210.16 477.002 210.16C477.134 210.16 477.262 210.168 477.395 210.186C477.527 210.199 477.655 210.213 477.788 210.213C478.829 210.376 479.818 210.772 480.746 211.407C481.677 212.041 482.353 212.83 482.776 213.773V213.725L482.768 213.72Z" fill="white"/>
<path d="M523.769 0C525.994 0 528.161 0.568475 530.281 1.70983C532.395 2.84678 534.051 4.47729 535.23 6.59696C536.408 8.71662 537.004 10.9332 537.004 13.2292C537.004 15.5251 536.422 17.7021 535.256 19.7997C534.095 21.9061 532.466 23.5366 530.36 24.6956C528.259 25.8634 526.06 26.4407 523.769 26.4407C521.477 26.4407 519.279 25.8634 517.173 24.6956C515.071 23.5366 513.433 21.9017 512.268 19.7997C511.098 17.7021 510.511 15.5075 510.511 13.2292C510.511 10.9509 511.102 8.72103 512.29 6.59696C513.482 4.4817 515.138 2.84678 517.252 1.70983C519.371 0.568475 521.544 0 523.769 0ZM523.769 2.19017C521.906 2.19017 520.091 2.66611 518.33 3.61797C516.568 4.56984 515.19 5.93153 514.197 7.70306C513.204 9.47459 512.705 11.3166 512.705 13.2292C512.705 15.1417 513.195 16.9573 514.171 18.7068C515.146 20.4563 516.515 21.818 518.268 22.7919C520.02 23.7658 521.857 24.2594 523.764 24.2594C525.671 24.2594 527.504 23.7702 529.256 22.7919C531.013 21.818 532.378 20.4563 533.349 18.7068C534.32 16.9617 534.806 15.1373 534.806 13.2292C534.806 11.321 534.307 9.47459 533.318 7.70306C532.329 5.93594 530.952 4.56984 529.186 3.61797C527.42 2.66611 525.61 2.19017 523.764 2.19017M517.95 20.518V6.31492H522.85C524.524 6.31492 525.738 6.44713 526.484 6.71153C527.239 6.97594 527.83 7.42984 528.281 8.08645C528.722 8.73866 528.947 9.43052 528.947 10.1665C528.947 11.202 528.576 12.1098 527.826 12.8766C527.084 13.6478 526.095 14.0753 524.859 14.1722C525.362 14.3837 525.769 14.6305 526.073 14.9258C526.647 15.481 527.349 16.4197 528.179 17.7417L529.914 20.5224H527.124L525.857 18.2882C524.859 16.5254 524.056 15.4193 523.442 14.9743C523.023 14.6526 522.413 14.4895 521.601 14.4939H520.25V20.5224H517.95V20.518ZM520.254 12.5197H523.045C524.382 12.5197 525.292 12.3214 525.777 11.9292C526.263 11.5326 526.51 11.0082 526.51 10.3648C526.51 9.94612 526.391 9.56713 526.157 9.24103C525.923 8.90611 525.601 8.66374 525.186 8.50069C524.766 8.34205 523.998 8.25832 522.877 8.25832H520.259V12.5285L520.254 12.5197Z" fill="white"/>
<path d="M185.412 54.0668C192.701 54.0668 198.617 48.1617 198.617 40.8861C198.617 33.6105 192.701 27.7054 185.412 27.7054C178.123 27.7054 172.207 33.6105 172.207 40.8861C172.207 48.1617 178.123 54.0668 185.412 54.0668Z" fill="white"/>
<path d="M494.065 99.0072C483.381 91.692 469.452 88.0343 452.278 88.0343H365.694C365.694 70.676 375.751 62.1885 386.068 58.0462C389.552 56.4994 393.357 55.4197 397.481 54.816C398.483 54.6706 399.785 54.5428 401.384 54.4326C405.401 54.0316 408.09 54.1418 408.09 54.1418C411.48 54.0492 415.524 54.0051 420.222 54.0095L497.738 54.0668L497.76 27.8376H401.587C372.908 27.8376 350.899 36.7614 335.553 54.6133C322.768 69.376 316.375 87.3645 316.375 108.57C316.375 131.384 325.876 148.094 344.869 158.697C361.491 167.956 385.879 172.587 418.023 172.587C443.418 172.587 463.872 169.635 479.399 163.73C497.849 156.749 507.985 145.68 509.809 130.511C509.994 129.573 510.082 128.229 510.082 126.484C510.082 115.48 504.74 106.318 494.056 99.0028L494.065 99.0072ZM443.246 147.623H413.454C361.217 147.623 365.857 112.28 365.857 112.28H443.241C453.02 112.28 460.945 120.191 460.945 129.952C460.945 139.713 453.02 147.623 443.241 147.623H443.246Z" fill="white"/>
<path d="M177.686 99.0734C167.002 91.7581 153.073 88.1005 135.899 88.1005H49.3143C49.3143 70.7421 59.3714 62.2547 69.6889 58.1123C73.1723 56.5655 76.9779 55.4859 81.1014 54.8821C82.1036 54.7367 83.406 54.6089 85.0042 54.4987C89.0217 54.0977 91.7104 54.2079 91.7104 54.2079C95.101 54.1153 99.1451 54.0713 103.842 54.0757L137.285 54.0977L172.128 54.1682C168.609 50.7177 166.419 45.6896 166.419 40.5865C166.419 35.4835 168.264 31.2397 171.298 27.8685H137.285V27.8994H85.2073C56.5282 27.8994 34.52 36.8231 19.1738 54.675C6.39275 69.4421 0 87.4306 0 108.636C0 131.45 9.50083 148.161 28.4937 158.763C45.1157 168.022 69.5035 172.653 101.648 172.653C127.043 172.653 147.497 169.701 163.024 163.796C181.474 156.816 191.61 145.746 193.434 130.577C193.619 129.639 193.707 128.295 193.707 126.55C193.707 115.546 188.365 106.384 177.681 99.069L177.686 99.0734ZM126.871 147.689H97.0789C44.842 147.689 49.482 112.347 49.482 112.347H126.866C136.645 112.347 144.57 120.257 144.57 130.018C144.57 139.779 136.645 147.689 126.866 147.689H126.871Z" fill="white"/>
<path d="M337.637 45.9143C335.836 43.7241 333.695 41.6661 331.227 39.7404C325.66 35.4349 318.9 32.3017 310.949 30.3363C310.909 30.3231 310.87 30.3143 310.83 30.3054C310.609 30.2526 310.384 30.1997 310.159 30.1468C309.775 30.0587 309.391 29.9705 309.002 29.8824C308.87 29.8515 308.742 29.8251 308.609 29.7943C308.344 29.737 308.079 29.6841 307.81 29.6312C307.695 29.6092 307.581 29.5827 307.461 29.5607C307.179 29.5034 306.892 29.4505 306.605 29.3976C306.517 29.38 306.428 29.3668 306.34 29.3492C306.022 29.2919 305.704 29.2346 305.382 29.1817C305.355 29.1817 305.329 29.1729 305.302 29.1685C300.137 28.3004 294.53 27.8597 288.477 27.8597H199.509C202.542 31.2221 204.391 35.4878 204.391 40.5424C204.391 45.597 202.259 50.5194 198.82 53.9523H198.789L210.48 53.9963H279.943C289.215 54.0448 296.716 61.5584 296.716 70.8214C296.716 80.0845 289.215 87.6025 279.943 87.6465H210.422V98.3022H210.48V98.3771H210.422V108.958H279.943C289.215 109.006 296.716 116.52 296.716 125.783C296.716 135.046 289.215 142.564 279.943 142.608H210.48L195.403 142.727L195.376 142.789C190.944 153.493 181.584 161.663 167.311 167.304C166.017 167.819 164.688 168.308 163.324 168.78H206.586V168.815H288.482C292.989 168.815 297.254 168.573 301.272 168.088C306.481 167.462 311.589 166.184 316.507 164.355C319.739 163.157 323.629 161.628 326.017 160.394C328.816 158.948 331.328 157.357 333.549 155.626C319.112 144.604 311.889 128.876 311.889 108.438C311.889 86.373 318.446 67.6574 331.558 52.2953C333.483 50.0258 335.509 47.8929 337.637 45.9011V45.9143Z" fill="white"/>
</g>
<defs>
<clipPath id="clip0_2988_439">
<rect width="537" height="246" fill="white"/>
</clipPath>
</defs>
</svg>
